{
  "asset": {
    "version": "2.0",
    "generator": "three.js custom"
  },
  "scene": 0,
  "scenes": [
    {
      "nodes": [
        0,
        9
      ]
    }
  ],
  "nodes": [
    {
      "mesh": 0,
      "translation": [
        0,
        0,
        0
      ],
      "rotation": [
        0,
        0,
        0,
        1
      ],
      "name": "Moon"
    },
    {
      "mesh": 1,
      "translation": [
        0,
        0.25,
        0
      ],
      "rotation": [
        0,
        0,
        0,
        1
      ],
      "name": "Body"
    },
    {
      "mesh": 2,
      "translation": [
        0,
        0.7,
        0
      ],
      "rotation": [
        0,
        0,
        0,
        1
      ],
      "name": "Helmet"
    },
    {
      "mesh": 3,
      "translation": [
        0,
        0.7,
        0.18
      ],
      "rotation": [
        0,
        0,
        0,
        1
      ],
      "name": "Visor"
    },
    {
      "mesh": 4,
      "translation": [
        0,
        0.3,
        -0.25
      ],
      "rotation": [
        0,
        0,
        0,
        1
      ],
      "name": "Backpack"
    },
    {
      "mesh": 5,
      "translation": [
        -0.12,
        0,
        0
      ],
      "rotation": [
        0,
        0,
        0,
        1
      ],
      "name": "LeftLeg"
    },
    {
      "mesh": 6,
      "translation": [
        0.12,
        0,
        0
      ],
      "rotation": [
        0,
        0,
        0,
        1
      ],
      "name": "RightLeg"
    },
    {
      "mesh": 7,
      "translation": [
        -0.32,
        0.5,
        0
      ],
      "rotation": [
        0,
        0,
        0.2,
        1
      ],
      "name": "LeftArm"
    },
    {
      "mesh": 8,
      "translation": [
        0.32,
        0.5,
        0
      ],
      "rotation": [
        0,
        0,
        -0.2,
        1
      ],
      "name": "RightArm"
    },
    {
      "children": [
        1,
        2,
        3,
        4,
        5,
        6,
        7,
        8
      ],
      "name": "Cosmonaut"
    }
  ],
  "meshes": [
    {
      "primitives": [
        {
          "attributes": {
            "POSITION": 0,
            "NORMAL": 1
          },
          "indices": 2
        }
      ],
      "name": "Moon"
    },
    {
      "primitives": [
        {
          "attributes": {
            "POSITION": 3,
            "NORMAL": 4
          },
          "indices": 5
        }
      ],
      "name": "Body"
    },
    {
      "primitives": [
        {
          "attributes": {
            "POSITION": 6,
            "NORMAL": 7
          },
          "indices": 8
        }
      ],
      "name": "Helmet"
    },
    {
      "primitives": [
        {
          "attributes": {
            "POSITION": 9,
            "NORMAL": 10
          },
          "indices": 11
        }
      ],
      "name": "Visor"
    },
    {
      "primitives": [
        {
          "attributes": {
            "POSITION": 12,
            "NORMAL": 13
          },
          "indices": 14
        }
      ],
      "name": "Backpack"
    },
    {
      "primitives": [
        {
          "attributes": {
            "POSITION": 15,
            "NORMAL": 16
          },
          "indices": 17
        }
      ],
      "name": "LeftLeg"
    },
    {
      "primitives": [
        {
          "attributes": {
            "POSITION": 18,
            "NORMAL": 19
          },
          "indices": 20
        }
      ],
      "name": "RightLeg"
    },
    {
      "primitives": [
        {
          "attributes": {
            "POSITION": 21,
            "NORMAL": 22
          },
          "indices": 23
        }
      ],
      "name": "LeftArm"
    },
    {
      "primitives": [
        {
          "attributes": {
            "POSITION": 24,
            "NORMAL": 25
          },
          "indices": 26
        }
      ],
      "name": "RightArm"
    }
  ],
  "materials": [
    {
      "pbrMetallicRoughness": {
        "baseColorFactor": [
          0.8,
          0.8,
          0.8,
          1
        ],
        "metallicFactor": 0.1,
        "roughnessFactor": 0.8
      },
      "name": "MoonMat"
    },
    {
      "pbrMetallicRoughness": {
        "baseColorFactor": [
          0.93,
          0.93,
          0.93,
          1
        ],
        "metallicFactor": 0,
        "roughnessFactor": 0.5
      },
      "name": "BodyMat"
    },
    {
      "pbrMetallicRoughness": {
        "baseColorFactor": [
          1,
          1,
          1,
          1
        ],
        "metallicFactor": 0,
        "roughnessFactor": 0.3
      },
      "name": "HelmetMat"
    },
    {
      "pbrMetallicRoughness": {
        "baseColorFactor": [
          0.53,
          0.8,
          1,
          1
        ],
        "metallicFactor": 0.3,
        "roughnessFactor": 0.1
      },
      "emissiveFactor": [
        0.27,
        0.53,
        1
      ],
      "emissiveIntensity": 0.3,
      "name": "VisorMat"
    },
    {
      "pbrMetallicRoughness": {
        "baseColorFactor": [
          0.67,
          0.67,
          0.67,
          1
        ],
        "metallicFactor": 0,
        "roughnessFactor": 0.5
      },
      "name": "BackpackMat"
    },
    {
      "pbrMetallicRoughness": {
        "baseColorFactor": [
          0.87,
          0.87,
          0.87,
          1
        ],
        "metallicFactor": 0,
        "roughnessFactor": 0.5
      },
      "name": "LeftLegMat"
    },
    {
      "pbrMetallicRoughness": {
        "baseColorFactor": [
          0.87,
          0.87,
          0.87,
          1
        ],
        "metallicFactor": 0,
        "roughnessFactor": 0.5
      },
      "name": "RightLegMat"
    },
    {
      "pbrMetallicRoughness": {
        "baseColorFactor": [
          0.87,
          0.87,
          0.87,
          1
        ],
        "metallicFactor": 0,
        "roughnessFactor": 0.5
      },
      "name": "LeftArmMat"
    },
    {
      "pbrMetallicRoughness": {
        "baseColorFactor": [
          0.87,
          0.87,
          0.87,
          1
        ],
        "metallicFactor": 0,
        "roughnessFactor": 0.5
      },
      "name": "RightArmMat"
    }
  ],
  "accessors": [
    {
      "bufferView": 0,
      "componentType": 5126,
      "count": 1089,
      "type": "VEC3",
      "min": [
        -2,
        -2,
        -2
      ],
      "max": [
        2,
        2,
        2
      ]
    },
    {
      "bufferView": 1,
      "componentType": 5126,
      "count": 1089,
      "type": "VEC3",
      "min": [
        -1,
        -1,
        -1
      ],
      "max": [
        1,
        1,
        1
      ]
    },
    {
      "bufferView": 2,
      "componentType": 5125,
      "count": 5952,
      "type": "SCALAR"
    },
    {
      "bufferView": 3,
      "componentType": 5126,
      "count": 52,
      "type": "VEC3",
      "min": [
        -0.30000001192092896,
        -0.25,
        -0.30000001192092896
      ],
      "max": [
        0.30000001192092896,
        0.25,
        0.30000001192092896
      ]
    },
    {
      "bufferView": 4,
      "componentType": 5126,
      "count": 52,
      "type": "VEC3",
      "min": [
        -1,
        -1,
        -1
      ],
      "max": [
        1,
        1,
        1
      ]
    },
    {
      "bufferView": 5,
      "componentType": 5125,
      "count": 96,
      "type": "SCALAR"
    },
    {
      "bufferView": 6,
      "componentType": 5126,
      "count": 169,
      "type": "VEC3",
      "min": [
        -0.20000000298023224,
        -0.20000000298023224,
        -0.20000000298023224
      ],
      "max": [
        0.20000000298023224,
        0.20000000298023224,
        0.20000000298023224
      ]
    },
    {
      "bufferView": 7,
      "componentType": 5126,
      "count": 169,
      "type": "VEC3",
      "min": [
        -1,
        -1,
        -1
      ],
      "max": [
        1,
        1,
        1
      ]
    },
    {
      "bufferView": 8,
      "componentType": 5125,
      "count": 792,
      "type": "SCALAR"
    },
    {
      "bufferView": 9,
      "componentType": 5126,
      "count": 81,
      "type": "VEC3",
      "min": [
        -0.10000000149011612,
        -0.10000000149011612,
        -0.10000000149011612
      ],
      "max": [
        0.10000000149011612,
        0.10000000149011612,
        0.10000000149011612
      ]
    },
    {
      "bufferView": 10,
      "componentType": 5126,
      "count": 81,
      "type": "VEC3",
      "min": [
        -1,
        -1,
        -1
      ],
      "max": [
        1,
        1,
        1
      ]
    },
    {
      "bufferView": 11,
      "componentType": 5125,
      "count": 336,
      "type": "SCALAR"
    },
    {
      "bufferView": 12,
      "componentType": 5126,
      "count": 24,
      "type": "VEC3",
      "min": [
        -0.10000000149011612,
        -0.15000000596046448,
        -0.07500000298023224
      ],
      "max": [
        0.10000000149011612,
        0.15000000596046448,
        0.07500000298023224
      ]
    },
    {
      "bufferView": 13,
      "componentType": 5126,
      "count": 24,
      "type": "VEC3",
      "min": [
        -1,
        -1,
        -1
      ],
      "max": [
        1,
        1,
        1
      ]
    },
    {
      "bufferView": 14,
      "componentType": 5125,
      "count": 36,
      "type": "SCALAR"
    },
    {
      "bufferView": 15,
      "componentType": 5126,
      "count": 40,
      "type": "VEC3",
      "min": [
        -0.06928203254938126,
        -0.15000000596046448,
        -0.07999999821186066
      ],
      "max": [
        0.06928203254938126,
        0.15000000596046448,
        0.07999999821186066
      ]
    },
    {
      "bufferView": 16,
      "componentType": 5126,
      "count": 40,
      "type": "VEC3",
      "min": [
        -1,
        -1,
        -1
      ],
      "max": [
        1,
        1,
        1
      ]
    },
    {
      "bufferView": 17,
      "componentType": 5125,
      "count": 72,
      "type": "SCALAR"
    },
    {
      "bufferView": 18,
      "componentType": 5126,
      "count": 40,
      "type": "VEC3",
      "min": [
        -0.06928203254938126,
        -0.15000000596046448,
        -0.07999999821186066
      ],
      "max": [
        0.06928203254938126,
        0.15000000596046448,
        0.07999999821186066
      ]
    },
    {
      "bufferView": 19,
      "componentType": 5126,
      "count": 40,
      "type": "VEC3",
      "min": [
        -1,
        -1,
        -1
      ],
      "max": [
        1,
        1,
        1
      ]
    },
    {
      "bufferView": 20,
      "componentType": 5125,
      "count": 72,
      "type": "SCALAR"
    },
    {
      "bufferView": 21,
      "componentType": 5126,
      "count": 40,
      "type": "VEC3",
      "min": [
        -0.05196152254939079,
        -0.17499999701976776,
        -0.05999999865889549
      ],
      "max": [
        0.05196152254939079,
        0.17499999701976776,
        0.05999999865889549
      ]
    },
    {
      "bufferView": 22,
      "componentType": 5126,
      "count": 40,
      "type": "VEC3",
      "min": [
        -1,
        -1,
        -1
      ],
      "max": [
        1,
        1,
        1
      ]
    },
    {
      "bufferView": 23,
      "componentType": 5125,
      "count": 72,
      "type": "SCALAR"
    },
    {
      "bufferView": 24,
      "componentType": 5126,
      "count": 40,
      "type": "VEC3",
      "min": [
        -0.05196152254939079,
        -0.17499999701976776,
        -0.05999999865889549
      ],
      "max": [
        0.05196152254939079,
        0.17499999701976776,
        0.05999999865889549
      ]
    },
    {
      "bufferView": 25,
      "componentType": 5126,
      "count": 40,
      "type": "VEC3",
      "min": [
        -1,
        -1,
        -1
      ],
      "max": [
        1,
        1,
        1
      ]
    },
    {
      "bufferView": 26,
      "componentType": 5125,
      "count": 72,
      "type": "SCALAR"
    },
    {
      "bufferView": 27,
      "componentType": 5126,
      "count": 61,
      "type": "SCALAR",
      "min": [
        0
      ],
      "max": [
        10
      ]
    },
    {
      "bufferView": 28,
      "componentType": 5126,
      "count": 61,
      "type": "VEC3",
      "min": [
        -2.3,
        0,
        -2.3
      ],
      "max": [
        2.3,
        0,
        2.3
      ]
    },
    {
      "bufferView": 29,
      "componentType": 5126,
      "count": 61,
      "type": "VEC4",
      "min": [
        -1,
        -1,
        -1,
        -1
      ],
      "max": [
        1,
        1,
        1,
        1
      ]
    }
  ],
  "bufferViews": [
    {
      "buffer": 0,
      "byteOffset": 0,
      "byteLength": 13068,
      "byteStride": 12,
      "target": 34962
    },
    {
      "buffer": 0,
      "byteOffset": 13068,
      "byteLength": 13068,
      "byteStride": 12,
      "target": 34962
    },
    {
      "buffer": 0,
      "byteOffset": 26136,
      "byteLength": 23808,
      "target": 34963
    },
    {
      "buffer": 0,
      "byteOffset": 49944,
      "byteLength": 624,
      "byteStride": 12,
      "target": 34962
    },
    {
      "buffer": 0,
      "byteOffset": 50568,
      "byteLength": 624,
      "byteStride": 12,
      "target": 34962
    },
    {
      "buffer": 0,
      "byteOffset": 51192,
      "byteLength": 384,
      "target": 34963
    },
    {
      "buffer": 0,
      "byteOffset": 51576,
      "byteLength": 2028,
      "byteStride": 12,
      "target": 34962
    },
    {
      "buffer": 0,
      "byteOffset": 53604,
      "byteLength": 2028,
      "byteStride": 12,
      "target": 34962
    },
    {
      "buffer": 0,
      "byteOffset": 55632,
      "byteLength": 3168,
      "target": 34963
    },
    {
      "buffer": 0,
      "byteOffset": 58800,
      "byteLength": 972,
      "byteStride": 12,
      "target": 34962
    },
    {
      "buffer": 0,
      "byteOffset": 59772,
      "byteLength": 972,
      "byteStride": 12,
      "target": 34962
    },
    {
      "buffer": 0,
      "byteOffset": 60744,
      "byteLength": 1344,
      "target": 34963
    },
    {
      "buffer": 0,
      "byteOffset": 62088,
      "byteLength": 288,
      "byteStride": 12,
      "target": 34962
    },
    {
      "buffer": 0,
      "byteOffset": 62376,
      "byteLength": 288,
      "byteStride": 12,
      "target": 34962
    },
    {
      "buffer": 0,
      "byteOffset": 62664,
      "byteLength": 144,
      "target": 34963
    },
    {
      "buffer": 0,
      "byteOffset": 62808,
      "byteLength": 480,
      "byteStride": 12,
      "target": 34962
    },
    {
      "buffer": 0,
      "byteOffset": 63288,
      "byteLength": 480,
      "byteStride": 12,
      "target": 34962
    },
    {
      "buffer": 0,
      "byteOffset": 63768,
      "byteLength": 288,
      "target": 34963
    },
    {
      "buffer": 0,
      "byteOffset": 64056,
      "byteLength": 480,
      "byteStride": 12,
      "target": 34962
    },
    {
      "buffer": 0,
      "byteOffset": 64536,
      "byteLength": 480,
      "byteStride": 12,
      "target": 34962
    },
    {
      "buffer": 0,
      "byteOffset": 65016,
      "byteLength": 288,
      "target": 34963
    },
    {
      "buffer": 0,
      "byteOffset": 65304,
      "byteLength": 480,
      "byteStride": 12,
      "target": 34962
    },
    {
      "buffer": 0,
      "byteOffset": 65784,
      "byteLength": 480,
      "byteStride": 12,
      "target": 34962
    },
    {
      "buffer": 0,
      "byteOffset": 66264,
      "byteLength": 288,
      "target": 34963
    },
    {
      "buffer": 0,
      "byteOffset": 66552,
      "byteLength": 480,
      "byteStride": 12,
      "target": 34962
    },
    {
      "buffer": 0,
      "byteOffset": 67032,
      "byteLength": 480,
      "byteStride": 12,
      "target": 34962
    },
    {
      "buffer": 0,
      "byteOffset": 67512,
      "byteLength": 288,
      "target": 34963
    },
    {
      "buffer": 0,
      "byteOffset": 67800,
      "byteLength": 244
    },
    {
      "buffer": 0,
      "byteOffset": 68044,
      "byteLength": 732
    },
    {
      "buffer": 0,
      "byteOffset": 68776,
      "byteLength": 976
    }
  ],
  "buffers": [
    {
      "uri": "data:application/octet-stream;base64,",
      "byteLength": 69752
    }
  ],
  "animations": [
    {
      "name": "Orbit",
      "channels": [
        {
          "sampler": 0,
          "target": {
            "node": 9,
            "path": "translation"
          }
        },
        {
          "sampler": 1,
          "target": {
            "node": 9,
            "path": "rotation"
          }
        }
      ],
      "samplers": [
        {
          "input": 27,
          "interpolation": "LINEAR",
          "output": 28
        },
        {
          "input": 27,
          "interpolation": "LINEAR",
          "output": 29
        }
      ]
    }
  ]
}